<mxfile host="app.diagrams.net" modified="2023-07-20T05:56:06.533Z" agent="Mozilla/5.0 (Windows NT 10.0; Win64; x64) AppleWebKit/537.36 (KHTML, like Gecko) Chrome/116.0.0.0 Safari/537.36 Edg/116.0.0.0" version="21.6.1" etag="iZb3_XpEgewUXOpn-9wY" type="github">
  <diagram name="第 1 页" id="wP4loEE3vOgQQYFAEse8">
    <mxGraphModel>
      <root>
        <mxCell id="0" />
        <mxCell id="1" parent="0" />
      </root>
    </mxGraphModel>
  </diagram>
</mxfile>
